<svg xmlns="http://www.w3.org/2000/svg" width="99.025" height="99" viewBox="0 0 99.025 99"><defs><style>.a{fill:none;stroke:#85a83d;stroke-width:4px;}</style></defs><g transform="translate(2.008 2)"><path class="a" d="M71.957,87.682A7.192,7.192,0,1,1,79.171,95,7.289,7.289,0,0,1,71.957,87.682Zm-53.4,0A7.192,7.192,0,1,1,25.774,95,7.289,7.289,0,0,1,18.56,87.682ZM26.535,72.65a11.919,11.919,0,0,1-8.2-3.269,12.443,12.443,0,0,1-3.856-8.069L10.114,8.474,2.945,7.212A3.638,3.638,0,0,1,3.633,0,3.593,3.593,0,0,1,4.18.043L15.5,1.783a3.647,3.647,0,0,1,2.941,3.3l.9,10.859a2.931,2.931,0,0,0,2.894,2.719h64.1a8.023,8.023,0,0,1,6.694,3.249c2.243,2.633,2.093,6.35,1.8,8.332l-4.511,31.8A12.263,12.263,0,0,1,78.318,72.65Zm27.48-32.426a3.6,3.6,0,0,0,3.561,3.634H70.722a3.6,3.6,0,0,0,3.56-3.634,3.562,3.562,0,0,0-3.56-3.638H57.576A3.562,3.562,0,0,0,54.014,40.224Z" transform="translate(0 -0.002)"/></g></svg>