<svg xmlns="http://www.w3.org/2000/svg" width="25" height="25" fill="none" viewBox="0 0 25 25">
<path class="a" fill="#61012d" d="M18.936,23.074A1.893,1.893,0,1,1,20.835,25,1.918,1.918,0,0,1,18.936,23.074Zm-14.052,0A1.893,1.893,0,1,1,6.782,25,1.918,1.918,0,0,1,4.885,23.074Zm2.1-3.956a3.136,3.136,0,0,1-2.158-.861A3.269,3.269,0,0,1,3.81,16.135L2.662,2.23.775,1.9A.958.958,0,0,1,.956,0,1.021,1.021,0,0,1,1.1.011L4.079.469a.96.96,0,0,1,.774.867L5.09,4.194a.771.771,0,0,0,.762.716H22.721a2.111,2.111,0,0,1,1.762.855,2.813,2.813,0,0,1,.475,2.193L23.77,16.325a3.227,3.227,0,0,1-3.16,2.793Zm7.232-8.533a.948.948,0,0,0,.937.956h3.459a.948.948,0,0,0,.937-.956.938.938,0,0,0-.937-.957H15.151A.938.938,0,0,0,14.214,10.585Z"/>
</svg>