<svg xmlns="http://www.w3.org/2000/svg" width="20" height="19.995" viewBox="0 0 20 19.995"><defs><style>.a{fill:#fff;}</style></defs><g transform="translate(0 0)"><path class="a" d="M10.006,20a3.024,3.024,0,0,1-2.131-.868l-.73-.732a1.489,1.489,0,0,0-1.06-.438H5.054a3.015,3.015,0,0,1-3.011-3.011V13.917a1.538,1.538,0,0,0-.44-1.071l-.72-.71a3.021,3.021,0,0,1-.01-4.259l.73-.732a1.5,1.5,0,0,0,.44-1.07V5.055A3.013,3.013,0,0,1,5.054,2.047h1.03a1.511,1.511,0,0,0,1.06-.441l.72-.72A3.017,3.017,0,0,1,12.127.877l.731.729a1.49,1.49,0,0,0,1.06.441h1.03a3.013,3.013,0,0,1,3.011,3.009V6.087A1.485,1.485,0,0,0,18.4,7.145l.72.72a3.03,3.03,0,0,1,.02,4.251l-.02.02-.01.01-.71.71a1.488,1.488,0,0,0-.441,1.061v1.029a3.014,3.014,0,0,1-3.011,3.011h-1.03a1.489,1.489,0,0,0-1.06.438l-.721.72A2.986,2.986,0,0,1,10.006,20Zm2.571-8.3a.875.875,0,1,0,.87.87A.877.877,0,0,0,12.578,11.7Zm-.005-5.144a.866.866,0,0,0-.616.254l-5.142,5.14a.88.88,0,0,0,0,1.239.829.829,0,0,0,.61.26.837.837,0,0,0,.62-.26l5.143-5.139a.875.875,0,0,0-.616-1.495Zm-5.137,0a.875.875,0,1,0,.87.869A.876.876,0,0,0,7.435,6.556Z" transform="translate(0 0)"/></g></svg>