<svg xmlns="http://www.w3.org/2000/svg" width="21" height="19.948" viewBox="0 0 21 19.948"><path d="M10.112,19.839l-.257-.155a36.486,36.486,0,0,1-6.3-4.906A12.955,12.955,0,0,1,.427,9.795,8.143,8.143,0,0,1,.637,4.022,6.612,6.612,0,0,1,4.708.331,6.891,6.891,0,0,1,10.219.9l.277.166L10.778.9a6.9,6.9,0,0,1,5.23-.65l.28.083a6.622,6.622,0,0,1,4.074,3.7,8.168,8.168,0,0,1,.211,5.786,13.116,13.116,0,0,1-3.125,4.973,36.509,36.509,0,0,1-6.295,4.9l-.241.15a.771.771,0,0,1-.8.007ZM5.178,1.792a5.11,5.11,0,0,0-3.159,2.9,6.591,6.591,0,0,0-.137,4.615,11.563,11.563,0,0,0,2.744,4.376,34.915,34.915,0,0,0,6.025,4.688l-.149-.094.49-.309a34.889,34.889,0,0,0,4.824-3.751l.555-.527a11.513,11.513,0,0,0,2.745-4.365A6.6,6.6,0,0,0,18.98,4.7a5.117,5.117,0,0,0-3.163-2.906,5.363,5.363,0,0,0-4.859.819.769.769,0,0,1-.908.009l-.207-.148a5.353,5.353,0,0,0-4.665-.68ZM15.527,7.455A2.08,2.08,0,0,0,14.1,5.644a.767.767,0,1,1,.467-1.462,3.614,3.614,0,0,1,2.495,3.145.768.768,0,0,1-.7.829l-.066,0A.768.768,0,0,1,15.527,7.455Z"/></svg>