<svg id="menu-alt-2" xmlns="http://www.w3.org/2000/svg" width="16" height="12" viewBox="0 0 16 12">
  <path id="Path" d="M3,2H1A1,1,0,0,1,1,0H3A1,1,0,0,1,3,2Z" transform="translate(12 5)" fill="#61012d"/>
  <path id="Path-2" data-name="Path" d="M3,2H1A1,1,0,0,1,1,0H3A1,1,0,0,1,3,2Z" transform="translate(12)" fill="#61012d"/>
  <path id="Path-3" data-name="Path" d="M3,2H1A1,1,0,0,1,1,0H3A1,1,0,0,1,3,2Z" transform="translate(12 10)" fill="#61012d"/>
  <path id="Path-4" data-name="Path" d="M3,2H1A1,1,0,0,1,1,0H3A1,1,0,0,1,3,2Z" transform="translate(6 5)" fill="#61012d"/>
  <path id="Path-5" data-name="Path" d="M3,2H1A1,1,0,0,1,1,0H3A1,1,0,0,1,3,2Z" transform="translate(6)" fill="#61012d"/>
  <path id="Path-6" data-name="Path" d="M3,2H1A1,1,0,0,1,1,0H3A1,1,0,0,1,3,2Z" transform="translate(6 10)" fill="#61012d"/>
  <path id="Path-7" data-name="Path" d="M3,2H1A1,1,0,0,1,1,0H3A1,1,0,0,1,3,2Z" transform="translate(0 5)" fill="#61012d"/>
  <path id="Path-8" data-name="Path" d="M3,2H1A1,1,0,0,1,1,0H3A1,1,0,0,1,3,2Z" fill="#61012d"/>
  <path id="Path-9" data-name="Path" d="M3,2H1A1,1,0,0,1,1,0H3A1,1,0,0,1,3,2Z" transform="translate(0 10)" fill="#61012d"/>
</svg>
