<svg xmlns="http://www.w3.org/2000/svg" width="99.184" height="94.589" viewBox="0 0 99.184 94.589"><defs><style>.a{fill:none;stroke:#85a83d;stroke-width:4px;}</style></defs><g transform="translate(2.077 2)"><path class="a" d="M47.656,90.25l0,0-1.229-.759A181.276,181.276,0,0,1,16.171,65.925a61.716,61.716,0,0,1-14.3-22.794,36.785,36.785,0,0,1,.68-25.056A28.9,28.9,0,0,1,20.54,1.279,21.4,21.4,0,0,1,24.763.287h.569A27.1,27.1,0,0,1,29.325,0h.522a29.763,29.763,0,0,1,8.7,1.569h.282a1.571,1.571,0,0,1,.427.282,16.032,16.032,0,0,1,2.992,1.24l1.8.8a12.477,12.477,0,0,1,1.355.9c.271.2.505.368.688.48l.194.113a11.564,11.564,0,0,1,1.229.785A29.563,29.563,0,0,1,65.594,0H65.8a27.675,27.675,0,0,1,8.836,1.381A28.591,28.591,0,0,1,92.477,18.088a37.6,37.6,0,0,1,.733,25.043A60.712,60.712,0,0,1,78.919,65.977,183.354,183.354,0,0,1,48.844,89.536l-1.186.712ZM70.967,14.81a3.843,3.843,0,0,0-3.6,2.577,3.893,3.893,0,0,0,2.373,4.886,7.962,7.962,0,0,1,5.083,7.46v.145a4.086,4.086,0,0,0,.9,2.945A3.992,3.992,0,0,0,78.436,34.2a3.909,3.909,0,0,0,3.753-3.612v-.564A15.679,15.679,0,0,0,72.169,15.01,3.7,3.7,0,0,0,70.967,14.81Z"/></g></svg>