<svg class="svg-icon" style="width: 1em;height: 1em;vertical-align: middle;fill: currentColor;overflow: hidden;" viewBox="0 0 1024 1024" version="1.1" xmlns="http://www.w3.org/2000/svg"><path d="M917.333333 853.333333h-810.666666A106.794667 106.794667 0 0 1 0 746.666667v-469.333334C0 218.538667 47.829333 170.666667 106.666667 170.666667h810.666666C976.170667 170.666667 1024 218.538667 1024 277.333333v469.333334c0 58.794667-47.829333 106.666667-106.666667 106.666666zM106.666667 213.333333C71.381333 213.333333 42.666667 242.048 42.666667 277.333333v469.333334c0 35.285333 28.714667 64 64 64h810.666666c35.285333 0 64-28.714667 64-64v-469.333334c0-35.285333-28.714667-64-64-64h-810.666666z"  /><path d="M1002.666667 469.333333H21.333333a21.333333 21.333333 0 0 1-21.333333-21.333333v-128A21.333333 21.333333 0 0 1 21.333333 298.666667h981.333334a21.333333 21.333333 0 0 1 21.333333 21.333333v128a21.333333 21.333333 0 0 1-21.333333 21.333333zM42.666667 426.666667h938.666666V341.333333H42.666667v85.333334zM320 640h-170.666667a21.333333 21.333333 0 0 1 0-42.666667h170.666667a21.333333 21.333333 0 0 1 0 42.666667zM448 725.333333h-298.666667a21.333333 21.333333 0 0 1 0-42.666666h298.666667a21.333333 21.333333 0 0 1 0 42.666666zM661.333333 768a21.290667 21.290667 0 0 1-18.304-32.298667l128-213.333333a21.333333 21.333333 0 0 1 36.608 21.973333l-128 213.333334A21.333333 21.333333 0 0 1 661.333333 768zM618.666667 640c-35.285333 0-64-28.714667-64-64s28.714667-64 64-64 64 28.714667 64 64-28.714667 64-64 64z m0-85.333333a21.333333 21.333333 0 1 0 0.085333 42.752A21.333333 21.333333 0 0 0 618.666667 554.666667zM832 768c-35.285333 0-64-28.714667-64-64s28.714667-64 64-64 64 28.714667 64 64-28.714667 64-64 64z m0-85.333333a21.333333 21.333333 0 1 0 0.085333 42.752A21.333333 21.333333 0 0 0 832 682.666667z"  /></svg>