<svg xmlns="http://www.w3.org/2000/svg" width="16" height="12" viewBox="0 0 16 12">
  <g id="Menu_Alt_2" data-name="Menu / Alt 2" transform="translate(-4 -6)">
    <g id="menu-alt-3" transform="translate(4 6)">
      <path id="Path" d="M15,2H1A1,1,0,0,1,1,0H15a1,1,0,0,1,0,2Z" transform="translate(0 5)" fill="#61012d"/>
      <path id="Path-2" data-name="Path" d="M15,2H1A1,1,0,0,1,1,0H15a1,1,0,0,1,0,2Z" fill="#61012d"/>
      <path id="Path-3" data-name="Path" d="M15,2H1A1,1,0,0,1,1,0H15a1,1,0,0,1,0,2Z" transform="translate(0 10)" fill="#61012d"/>
    </g>
  </g>
</svg>
