<svg xmlns="http://www.w3.org/2000/svg" width="104" height="111.553" viewBox="0 0 104 111.553"><defs><style>.a{stroke:#f7f7f7;stroke-width:3px;}</style></defs><g transform="translate(0 2.049)"><g transform="translate(0 15.728)"><g transform="translate(0 0)"><path d="M14.391,28.786A14.393,14.393,0,1,1,28.786,14.391,14.409,14.409,0,0,1,14.391,28.786Zm0-19.192a4.8,4.8,0,1,0,4.8,4.8A4.8,4.8,0,0,0,14.391,9.594Z" transform="translate(37.604 56.678)"/><path d="M38.477,16.574a4.8,4.8,0,0,1-3.406-1.391,19.669,19.669,0,0,0-27.153,0A4.8,4.8,0,0,1,1.154,8.418a28.784,28.784,0,0,1,40.682,0,4.773,4.773,0,0,1-3.358,8.156Z" transform="translate(30.5 42.663)"/><path d="M58.235,20.783a4.726,4.726,0,0,1-3.372-1.391,33.016,33.016,0,0,0-47.023,0,4.715,4.715,0,0,1-6.448-.252,4.833,4.833,0,0,1-.249-6.513,42.449,42.449,0,0,1,60.418,0,4.832,4.832,0,0,1,0,6.764A4.726,4.726,0,0,1,58.235,20.783Z" transform="translate(20.646 28.449)"/><path d="M99.2,29.3a4.754,4.754,0,0,1-3.386-1.391,61.726,61.726,0,0,0-87.645,0,4.777,4.777,0,0,1-8.01-2.159A4.837,4.837,0,0,1,1.4,21.093a71.223,71.223,0,0,1,101.187,0,4.818,4.818,0,0,1,0,6.812A4.754,4.754,0,0,1,99.2,29.3Z"/><path d="M78.871,25.136a4.743,4.743,0,0,1-3.381-1.391,47.364,47.364,0,0,0-67.328,0,4.756,4.756,0,0,1-6.761,0,4.843,4.843,0,0,1,0-6.812,56.838,56.838,0,0,1,80.946,0,4.823,4.823,0,0,1,0,6.812,4.743,4.743,0,0,1-3.476,1.391Z" transform="translate(10.171 14.115)"/></g></g><path class="a" d="M3.974-.015,115.256-.43a3.947,3.947,0,0,1,3.96,3.977,4.019,4.019,0,0,1-3.989,4.006L3.945,7.968A3.947,3.947,0,0,1-.015,3.991,4.019,4.019,0,0,1,3.974-.015Z" transform="translate(23.152 0.228) rotate(60)"/></g></svg>