<svg xmlns="http://www.w3.org/2000/svg" width="14.456" height="14.539" viewBox="0 0 14.456 14.539">
  <g id="Group_181" data-name="Group 181" transform="translate(0.5 0.603)">
    <g id="Group_84" data-name="Group 84" transform="translate(1.526 1.495)">
      <path id="Stroke_3-40" data-name="Stroke 3-40" d="M-553.57,934.75l10.416-10.416" transform="translate(553.57 -924.334)" fill="#fff" stroke="#fff" stroke-linecap="round" stroke-linejoin="round" stroke-width="1"/>
      <path id="Fill_5-12" data-name="Fill 5-12" d="M-547.663,931.755a1.514,1.514,0,0,1-1.074-.446,1.688,1.688,0,0,1-.324-.507,1.364,1.364,0,0,1-.122-.567,1.459,1.459,0,0,1,.122-.588,1.573,1.573,0,0,1,.324-.486,1.568,1.568,0,0,1,2.148,0,1.61,1.61,0,0,1,.345.486,1.868,1.868,0,0,1,.1.588,1.754,1.754,0,0,1-.1.567,1.724,1.724,0,0,1-.345.507,1.513,1.513,0,0,1-1.074.446" transform="translate(558.073 -919.815)" fill="#fff" stroke="#fff" stroke-width="1"/>
    </g>
    <path id="Fill_7-9" data-name="Fill 7-9" d="M-552.8,926.617a1.371,1.371,0,0,1-.568-.124,1.645,1.645,0,0,1-.507-.322,1.959,1.959,0,0,1-.324-.507,1.367,1.367,0,0,1-.122-.568,1.461,1.461,0,0,1,.122-.588,1.356,1.356,0,0,1,.324-.486,1.564,1.564,0,0,1,2.148,0,1.513,1.513,0,0,1,.446,1.074,1.329,1.329,0,0,1-.1.568,2.052,2.052,0,0,1-.344.507,1.566,1.566,0,0,1-.486.322,1.464,1.464,0,0,1-.588.124" transform="translate(554.323 -923.596)" fill="#fff" stroke="#fff" stroke-width="1"/>
  </g>
</svg>
