<svg id="ترتيب_حسب" data-name="ترتيب حسب" xmlns="http://www.w3.org/2000/svg" width="15" height="13.658" viewBox="0 0 15 13.658">
  <path id="Swap" d="M10.963,13.547h0l0,0h0a.577.577,0,0,1-.063-.054l0,0L7.772,10.351a.574.574,0,0,1,.75-.866l.064.056,2.142,2.151V2.653a.574.574,0,0,1,1.144-.078l.006.078v9.038l2.142-2.15a.575.575,0,0,1,.87.746l-.056.064-3.123,3.138h0l0,0a.573.573,0,0,1-.743.054ZM3.128,11.083l0-.078V1.965L.982,4.117a.575.575,0,0,1-.748.057L.169,4.119a.575.575,0,0,1-.057-.748l.056-.065L3.291.169A.572.572,0,0,1,3.527.026h0l.011,0h0l.009,0h.005l.008,0,.007,0h.006l.008,0h.005l.008,0h.166l.012,0h.041l.008,0h0a.572.572,0,0,1,.209.1l0,0A.578.578,0,0,1,4.1.165l0,0L7.228,3.307a.575.575,0,0,1-.75.866l-.065-.056L4.272,1.965v9.04a.574.574,0,0,1-1.144.078Z" fill="#fff"/>
</svg>
