<svg xmlns="http://www.w3.org/2000/svg" width="21" height="21" viewBox="0 0 21 21"><defs><style>.a,.b{fill:#fff;}.a{opacity:0;}.c{fill:none;stroke:#85a83d;stroke-linecap:round;stroke-linejoin:round;}</style></defs><g transform="translate(-1175 1224)"><g transform="translate(1179 -1224)"><rect class="a" width="13" height="13"/><g transform="translate(1.199 1.199)"><path class="b" d="M181,177.869l-3.3,1.318a2.2,2.2,0,0,1-1.632,0l-3.3-1.318a2.2,2.2,0,0,1-1.381-2.04v-3.955a2.2,2.2,0,0,1,1.381-2.04l3.3-1.318a2.2,2.2,0,0,1,1.632,0l3.3,1.318a2.2,2.2,0,0,1,1.381,2.04v3.955A2.2,2.2,0,0,1,181,177.869Z" transform="translate(-171.4 -168.359)"/><path class="c" d="M178.318,180.184v-3.262a2.044,2.044,0,0,1,1.108-1.88l2.253-1.035-2.706,1.243a1.552,1.552,0,0,1-1.309,0l-2.706-1.243" transform="translate(-172.826 -171.205)"/></g></g><g transform="translate(1183 -1216)"><rect class="a" width="13" height="13"/><g transform="translate(1.199 1.199)"><path class="b" d="M181,177.869l-3.3,1.318a2.2,2.2,0,0,1-1.632,0l-3.3-1.318a2.2,2.2,0,0,1-1.381-2.04v-3.955a2.2,2.2,0,0,1,1.381-2.04l3.3-1.318a2.2,2.2,0,0,1,1.632,0l3.3,1.318a2.2,2.2,0,0,1,1.381,2.04v3.955A2.2,2.2,0,0,1,181,177.869Z" transform="translate(-171.4 -168.359)"/><path class="c" d="M178.318,180.184v-3.262a2.044,2.044,0,0,1,1.108-1.88l2.253-1.035-2.706,1.243a1.552,1.552,0,0,1-1.309,0l-2.706-1.243" transform="translate(-172.826 -171.205)"/></g></g><g transform="translate(1175 -1216)"><rect class="a" width="13" height="13"/><g transform="translate(1.199 1.199)"><path class="b" d="M181,177.869l-3.3,1.318a2.2,2.2,0,0,1-1.632,0l-3.3-1.318a2.2,2.2,0,0,1-1.381-2.04v-3.955a2.2,2.2,0,0,1,1.381-2.04l3.3-1.318a2.2,2.2,0,0,1,1.632,0l3.3,1.318a2.2,2.2,0,0,1,1.381,2.04v3.955A2.2,2.2,0,0,1,181,177.869Z" transform="translate(-171.4 -168.359)"/><path class="c" d="M178.318,180.184v-3.262a2.044,2.044,0,0,1,1.108-1.88l2.253-1.035-2.706,1.243a1.552,1.552,0,0,1-1.309,0l-2.706-1.243" transform="translate(-172.826 -171.205)"/></g></g></g></svg>